<?xml version="1.0" standalone="no"?>
<!DOCTYPE svg PUBLIC "-//W3C//DTD SVG 20010904//EN"
 "http://www.w3.org/TR/2001/REC-SVG-20010904/DTD/svg10.dtd">
<svg version="1.0" xmlns="http://www.w3.org/2000/svg"
 width="512.000000pt" height="512.000000pt" viewBox="0 0 512.000000 512.000000"
 preserveAspectRatio="xMidYMid meet">
<metadata>
Created by potrace 1.14, written by Peter Selinger 2001-2017
</metadata>
<g transform="translate(0.000000,512.000000) scale(0.100000,-0.100000)"
fill="#000000" stroke="none">
<path d="M2771 4822 c-23 -95 -30 -127 -26 -130 2 -2 37 -12 78 -21 l74 -16
-30 -137 c-27 -124 -31 -136 -49 -133 -100 20 -350 25 -493 12 -93 -9 -268
-47 -375 -81 -476 -152 -870 -488 -1094 -933 -25 -50 -46 -94 -46 -98 0 -3 -9
-25 -19 -48 -10 -23 -29 -75 -41 -115 -26 -85 -8 -81 -193 -42 -107 23 -108
24 -102 49 4 14 9 37 12 51 2 14 8 42 12 62 10 41 6 44 -58 54 -20 3 -51 9
-68 14 -32 8 -33 7 -44 -33 -6 -23 -12 -49 -14 -57 -7 -36 -57 -260 -70 -317
-8 -34 -15 -67 -15 -72 0 -10 59 -30 115 -38 17 -2 35 -6 42 -8 7 -2 16 17 23
53 6 31 14 65 16 75 6 19 35 22 80 8 16 -5 69 -17 117 -27 l89 -17 -7 -36
c-14 -75 -17 -110 -17 -251 -1 -189 8 -271 49 -440 172 -716 771 -1266 1508
-1385 235 -38 536 -25 760 31 70 17 181 51 210 64 11 5 52 22 90 38 39 17 95
43 125 59 l54 30 51 -76 c27 -42 62 -95 77 -117 l26 -41 -74 -48 c-41 -26 -74
-50 -74 -53 0 -3 14 -28 32 -56 59 -95 33 -100 274 51 118 75 214 139 214 143
0 8 -60 101 -82 127 -7 9 -26 2 -75 -29 -35 -22 -68 -37 -72 -32 -19 21 -141
213 -141 222 0 5 12 17 26 27 50 32 149 119 228 200 266 270 453 649 501 1014
4 25 9 62 11 81 7 48 6 305 -1 360 -22 170 -45 272 -95 414 -111 313 -321 611
-575 812 -44 35 -86 69 -93 75 -82 68 -330 192 -488 245 -66 21 -121 40 -123
41 -2 1 2 24 8 50 6 26 14 58 16 71 3 12 7 30 9 40 2 9 7 31 11 47 16 68 9 64
79 49 124 -26 113 -28 125 24 7 26 13 57 16 70 2 12 6 26 10 31 6 11 -6 20
-32 26 -10 2 -83 18 -163 35 -80 17 -156 33 -170 36 -24 4 -103 22 -127 30 -7
2 -16 -12 -22 -34z m-56 -596 c770 -88 1377 -672 1489 -1431 14 -93 14 -341 2
-445 -29 -224 -152 -530 -294 -730 -66 -93 -226 -264 -311 -330 -313 -249
-699 -382 -1090 -375 -283 5 -500 58 -746 180 -173 87 -296 176 -435 315 -159
159 -295 359 -360 529 -12 31 -26 65 -31 76 -27 61 -55 168 -79 305 -25 146
-21 424 9 560 74 342 213 609 436 835 110 112 174 166 285 238 247 159 507
251 780 273 41 4 76 7 77 9 6 4 211 -3 268 -9z"/>
<path d="M2727 3684 l-68 -45 42 -50 c123 -148 337 -213 526 -160 39 11 87 30
107 42 l35 20 -46 70 c-25 38 -49 69 -53 69 -3 0 -25 -9 -48 -20 -118 -57
-289 -19 -380 84 -17 20 -35 36 -39 35 -4 0 -39 -20 -76 -45z"/>
<path d="M1725 3598 c-11 -6 -45 -36 -76 -68 -96 -101 -148 -246 -136 -383 7
-84 49 -205 76 -222 6 -3 42 15 81 40 68 43 70 46 56 68 -79 126 -38 315 89
415 l25 20 -41 64 c-54 81 -51 79 -74 66z"/>
<path d="M2352 3173 c-69 -44 -72 -47 -58 -67 8 -11 69 -106 137 -209 67 -103
125 -190 129 -192 4 -3 39 16 78 41 l71 46 -17 26 c-9 15 -51 79 -93 142 -41
63 -97 148 -123 188 -25 39 -48 72 -49 72 -1 0 -35 -21 -75 -47z"/>
<path d="M3583 3135 c-121 -33 -233 -112 -296 -208 -30 -46 -83 -166 -75 -172
2 -1 30 -7 63 -14 33 -7 70 -15 82 -18 18 -4 25 4 49 57 55 123 195 210 320
197 41 -4 54 -2 58 9 12 32 36 146 32 153 -9 13 -180 11 -233 -4z"/>
<path d="M1440 2358 c-36 -23 -67 -43 -69 -44 -6 -5 24 -47 60 -82 118 -117
291 -171 454 -143 67 12 167 50 179 69 10 16 -77 143 -94 138 -8 -3 -40 -14
-70 -25 -116 -42 -252 -9 -344 85 -24 24 -45 44 -47 44 -3 0 -33 -19 -69 -42z"/>
<path d="M3115 2079 c-4 -14 -22 -92 -31 -135 -3 -16 2 -23 19 -27 203 -45
478 -99 482 -95 3 3 8 18 11 34 3 16 9 45 14 64 18 64 17 65 -77 84 -49 9 -95
19 -103 20 -8 2 -71 16 -140 30 -69 15 -135 29 -147 33 -14 3 -25 0 -28 -8z"/>
<path d="M2410 1654 c-158 -37 -278 -131 -345 -269 -57 -117 -59 -110 37 -132
l83 -19 33 67 c59 122 167 190 306 193 l70 1 17 80 c10 44 16 81 14 83 -10 10
-168 7 -215 -4z"/>
<path d="M1231 4541 c-112 -72 -208 -134 -212 -138 -8 -8 75 -143 88 -143 3 0
47 26 97 58 50 33 146 94 214 136 l123 78 -21 31 c-11 18 -31 49 -43 69 -12
21 -27 38 -33 38 -5 0 -102 -58 -213 -129z"/>
<path d="M4329 4018 c-35 -22 -68 -44 -72 -48 -12 -11 261 -425 279 -424 17 2
134 76 134 85 0 4 -44 73 -98 155 -54 82 -116 177 -138 211 l-40 62 -65 -41z"/>
<path d="M4750 2387 l-65 -42 24 -50 c37 -76 35 -189 -4 -268 -16 -31 -49 -76
-74 -100 l-47 -42 45 -67 c24 -38 49 -68 55 -68 20 0 102 78 140 133 20 29 48
85 61 123 20 58 23 85 21 174 -2 91 -6 115 -32 175 -16 38 -36 71 -44 72 -8 2
-44 -16 -80 -40z"/>
<path d="M449 1648 c-7 -157 9 -228 73 -336 58 -97 196 -199 295 -218 29 -6
33 -4 38 22 3 16 10 45 15 65 14 53 12 79 -5 79 -27 0 -109 47 -147 85 -72 71
-94 136 -98 292 0 10 -117 43 -154 43 -11 0 -16 -10 -17 -32z"/>
<path d="M1800 483 c-6 -32 -15 -68 -20 -80 -6 -14 -6 -25 0 -28 5 -3 120 -29
255 -59 l245 -53 10 36 c24 92 29 126 18 132 -5 4 -56 16 -112 27 -55 12 -144
30 -196 42 -52 11 -108 23 -125 26 -16 2 -38 7 -47 10 -13 4 -19 -6 -28 -53z"/>
</g>
</svg>
