<svg width="36" height="35" viewBox="0 0 36 35" fill="none" xmlns="http://www.w3.org/2000/svg">
<path fill-rule="evenodd" clip-rule="evenodd" d="M32.8285 10.0052L30.7021 6.76111L31.7996 6.06616L33.9259 9.31027L32.8285 10.0052Z" fill="#00415A"/>
<path fill-rule="evenodd" clip-rule="evenodd" d="M6.79972 4.53756L6.09277 3.45917L9.39291 1.3689L10.0999 2.44729L6.79972 4.53756Z" fill="#00415A"/>
<path fill-rule="evenodd" clip-rule="evenodd" d="M17.89 16.3767L15.7637 13.1322L16.8611 12.4373L18.9875 15.6818L17.89 16.3767Z" fill="#00415A"/>
<path fill-rule="evenodd" clip-rule="evenodd" d="M25.6645 23.0858L21.8271 22.2699L22.1033 21.0161L25.9402 21.8316L25.6645 23.0858Z" fill="#00415A"/>
<path fill-rule="evenodd" clip-rule="evenodd" d="M26.2854 31.7168L24.4023 28.8441L25.4994 28.1492L27.3824 31.0219L26.2854 31.7168Z" fill="#00415A"/>
<path fill-rule="evenodd" clip-rule="evenodd" d="M25.4589 33.0035L24.752 31.9251L28.0521 29.8345L28.759 30.9129L25.4589 33.0035Z" fill="#00415A"/>
<path fill-rule="evenodd" clip-rule="evenodd" d="M4.29335 15.1546L0.895508 14.4324L1.17124 13.1782L4.56909 13.9004L4.29335 15.1546Z" fill="#00415A"/>
<path fill-rule="evenodd" clip-rule="evenodd" d="M0 15.4663L1.27622 15.7374L2.1062 11.9651L0.829978 11.6941L0 15.4663Z" fill="#00415A"/>
<path fill-rule="evenodd" clip-rule="evenodd" d="M21.1278 4.49174L19.8516 4.22068L20.5866 0.880127L21.8628 1.15118L21.1278 4.49174Z" fill="#00415A"/>
<path fill-rule="evenodd" clip-rule="evenodd" d="M19.5345 0.000244141L19.2588 1.25441L23.0965 2.06991L23.3719 0.815744L19.5345 0.000244141Z" fill="#00415A"/>
<path fill-rule="evenodd" clip-rule="evenodd" d="M11.915 34.0603L15.7524 34.8762L16.0281 33.622L12.1908 32.8062L11.915 34.0603Z" fill="#00415A"/>
<path fill-rule="evenodd" clip-rule="evenodd" d="M4.84735 28.6303C2.7641 28.1874 1.43605 26.1609 1.88664 24.1138L3.16247 24.3848C2.86418 25.7409 3.74361 27.0829 5.12348 27.3762L4.84735 28.6303Z" fill="#00415A"/>
<path fill-rule="evenodd" clip-rule="evenodd" d="M33.9652 23.6396L33.2578 22.5613C34.4442 21.8091 34.7876 20.2489 34.0233 19.0826L35.1203 18.3877C36.2751 20.1486 35.7564 22.5049 33.9652 23.6396Z" fill="#00415A"/>
<path fill-rule="evenodd" clip-rule="evenodd" d="M12.0699 21.0743C10.7988 21.0743 9.55265 20.4598 8.81445 19.3336L9.91186 18.6387C10.6766 19.8042 12.2633 20.1417 13.4501 19.3912L14.1571 20.4696C13.5115 20.8787 12.7867 21.0743 12.0699 21.0743Z" fill="#00415A"/>
<path fill-rule="evenodd" clip-rule="evenodd" d="M21.9119 10.9677C21.6377 10.9677 21.3616 10.939 21.0874 10.8802C20.0783 10.6663 19.2147 10.0783 18.6553 9.22512L19.7527 8.52979C20.123 9.09484 20.695 9.48451 21.3632 9.62645C22.0322 9.76723 22.7162 9.6459 23.2906 9.2819L23.9979 10.3603C23.3661 10.7608 22.6461 10.9677 21.9119 10.9677Z" fill="#00415A"/>
<path fill-rule="evenodd" clip-rule="evenodd" d="M10.5184 14.7156C9.364 12.9547 9.88224 10.5988 11.6735 9.46362L12.3809 10.5424C11.1945 11.2941 10.8511 12.8543 11.6154 14.0206L10.5184 14.7156Z" fill="#00415A"/>
<path fill-rule="evenodd" clip-rule="evenodd" d="M24.1131 16.2273L22.8369 15.9562C23.0553 14.9642 23.6534 14.1152 24.5214 13.5653C25.3894 13.0154 26.4227 12.8311 27.4323 13.0458L27.1557 14.2999C26.4876 14.1588 25.8032 14.2801 25.2283 14.6445C24.6535 15.0081 24.2575 15.5708 24.1131 16.2273Z" fill="#00415A"/>
<path fill-rule="evenodd" clip-rule="evenodd" d="M15.0575 27.5074L13.7812 27.2363C14.2322 25.1888 16.2937 23.8802 18.3766 24.3259L18.1005 25.5801C16.7218 25.2884 15.3562 26.1513 15.0575 27.5074Z" fill="#00415A"/>
<path fill-rule="evenodd" clip-rule="evenodd" d="M17.6081 4.69342C15.1661 4.69342 12.7723 5.38098 10.6708 6.71176C7.78411 8.54031 5.79501 11.364 5.06907 14.6634C3.57092 21.474 7.98863 28.213 14.9165 29.6865C16.3307 29.9868 17.768 30.0529 19.1906 29.8821C24.6183 29.2323 29.0419 25.2633 30.1987 20.0059C31.6968 13.1953 27.2795 6.45626 20.3513 4.98314C19.4386 4.78948 18.52 4.69342 17.6081 4.69342ZM17.6453 31.258C16.6405 31.258 15.6349 31.1519 14.6407 30.9403C7.00912 29.3179 2.14279 21.8944 3.79325 14.3919C4.59276 10.7578 6.78402 7.64742 9.96349 5.63337C13.1434 3.61931 16.9301 2.94264 20.627 3.72937C28.259 5.35142 33.1253 12.7749 31.4749 20.277C30.2006 26.0679 25.3276 30.4398 19.3484 31.1561C18.7823 31.2242 18.2138 31.258 17.6453 31.258Z" fill="#00415A"/>
</svg>
